<svg id="svg" version="1.1" xmlns="http://www.w3.org/2000/svg" xmlns:xlink="http://www.w3.org/1999/xlink" width="400" height="180.622009569378" viewBox="0, 0, 400,180.622009569378"><g id="svgg"><path id="path0" d="M49.684 11.127 C 46.013 11.800,45.639 11.904,42.852 13.034 C 29.942 18.270,24.169 34.311,30.658 46.922 C 39.901 64.884,65.729 64.755,74.753 46.703 C 81.704 32.795,73.970 15.590,59.079 11.833 C 58.433 11.670,57.620 11.457,57.272 11.360 C 56.606 11.174,50.457 10.985,49.684 11.127 M56.041 18.161 C 71.027 21.277,75.714 40.103,63.866 49.594 C 52.133 58.994,34.931 50.758,34.806 35.682 C 34.715 24.584,45.224 15.912,56.041 18.161 M116.079 23.059 C 111.534 23.764,107.335 27.631,106.433 31.942 C 106.069 33.683,106.276 37.735,106.761 38.392 C 106.835 38.491,107.004 38.857,107.137 39.205 C 109.426 45.190,117.333 47.862,123.275 44.658 C 131.238 40.365,131.104 28.470,123.046 24.305 C 121.142 23.321,118.005 22.760,116.079 23.059 M119.777 30.530 C 122.964 32.156,122.933 37.037,119.725 38.584 C 116.594 40.095,113.279 37.982,113.279 34.475 C 113.279 31.133,116.786 29.004,119.777 30.530 M341.466 43.767 C 341.467 43.991,341.586 45.799,341.729 47.787 C 341.872 49.774,342.039 52.132,342.099 53.026 C 342.278 55.672,342.119 55.465,343.977 55.465 C 345.809 55.465,345.799 55.473,345.799 53.903 C 345.799 53.044,346.084 48.969,346.443 44.670 L 346.553 43.360 344.008 43.360 C 341.489 43.360,341.463 43.364,341.466 43.767 M367.209 45.999 C 367.010 46.049,366.330 46.213,365.698 46.364 C 361.323 47.412,358.569 50.384,358.312 54.333 C 358.014 58.918,360.667 61.871,366.396 63.330 C 371.384 64.600,372.521 64.932,373.387 65.374 C 377.071 67.253,375.379 70.905,370.714 71.145 C 367.174 71.327,364.620 69.766,364.277 67.211 C 364.132 66.127,364.072 66.111,360.506 66.166 L 357.284 66.215 357.336 67.118 C 357.705 73.507,363.784 77.481,371.894 76.635 C 378.256 75.972,381.880 72.936,382.229 67.975 C 382.619 62.448,380.044 60.002,371.725 57.997 C 366.236 56.674,364.986 55.935,365.200 54.135 C 365.650 50.347,373.490 50.623,374.607 54.467 L 374.900 55.474 378.100 55.424 L 381.301 55.375 381.246 54.562 C 380.981 50.649,378.182 47.611,373.718 46.389 C 372.478 46.050,368.069 45.786,367.209 45.999 M210.387 46.642 C 210.337 46.775,210.316 53.469,210.342 61.518 L 210.388 76.152 215.266 76.203 C 219.083 76.244,220.516 76.192,221.853 75.967 C 237.167 73.388,238.337 51.762,223.419 47.016 C 221.650 46.454,210.580 46.136,210.387 46.642 M256.430 46.568 C 256.314 46.643,255.839 47.639,255.374 48.781 C 254.909 49.924,254.079 51.956,253.531 53.297 C 252.982 54.639,251.778 57.606,250.854 59.892 C 248.685 65.259,246.732 70.066,245.383 73.351 C 244.643 75.155,244.371 76.012,244.512 76.104 C 244.878 76.342,251.271 76.268,251.435 76.023 C 251.515 75.903,252.035 74.582,252.590 73.088 L 253.599 70.370 259.180 70.370 L 264.761 70.370 265.759 73.082 C 266.308 74.574,266.823 75.895,266.903 76.018 C 267.067 76.269,273.804 76.353,273.955 76.107 C 274.030 75.983,273.250 74.012,269.076 63.776 C 268.327 61.938,266.873 58.360,265.846 55.827 C 264.819 53.293,263.544 50.163,263.013 48.871 L 262.047 46.522 259.343 46.477 C 257.856 46.452,256.545 46.493,256.430 46.568 M285.539 46.658 C 285.492 46.782,285.474 53.469,285.500 61.518 L 285.547 76.152 288.799 76.152 L 292.051 76.152 292.141 67.157 L 292.231 58.162 292.848 59.298 C 294.051 61.512,297.279 67.342,298.979 70.370 C 299.927 72.060,301.033 74.051,301.436 74.797 L 302.170 76.152 305.150 76.203 C 306.789 76.232,308.313 76.210,308.538 76.154 L 308.945 76.054 308.899 61.288 L 308.853 46.522 305.601 46.522 L 302.349 46.522 302.258 55.448 C 302.192 62.034,302.115 64.307,301.967 64.120 C 301.857 63.980,301.418 63.216,300.992 62.421 C 300.566 61.626,299.712 60.081,299.095 58.988 C 298.478 57.895,297.734 56.554,297.442 56.007 C 296.966 55.118,293.668 49.169,292.558 47.200 L 292.126 46.432 288.876 46.432 C 286.442 46.432,285.604 46.489,285.539 46.658 M322.759 46.653 C 322.710 46.780,322.692 53.469,322.718 61.518 L 322.764 76.152 326.016 76.152 L 329.268 76.152 329.268 61.337 L 329.268 46.522 326.057 46.473 C 323.587 46.435,322.826 46.477,322.759 46.653 M110.365 47.149 C 108.585 47.687,108.541 47.795,102.044 67.389 L 101.115 70.190 99.162 70.214 C 96.768 70.244,95.088 70.620,92.999 71.592 C 92.129 71.996,91.392 72.294,91.359 72.252 C 91.327 72.211,90.657 71.403,89.869 70.457 C 89.082 69.512,87.624 67.733,86.631 66.505 C 82.881 61.870,80.676 59.162,80.494 58.972 C 80.391 58.863,80.104 58.501,79.855 58.166 C 77.452 54.928,75.332 54.287,73.360 56.200 C 71.583 57.925,71.890 59.531,74.618 62.782 C 75.368 63.677,76.142 64.622,76.338 64.884 C 76.613 65.252,79.594 68.905,82.511 72.448 C 82.633 72.597,83.515 73.654,84.469 74.797 C 86.596 77.343,86.494 77.082,85.810 78.242 C 85.014 79.592,84.429 81.308,84.132 83.162 C 83.830 85.047,84.135 84.768,81.843 85.263 C 80.799 85.488,79.295 85.819,78.500 85.998 C 77.706 86.176,76.242 86.501,75.248 86.719 C 74.255 86.937,72.791 87.266,71.996 87.451 C 70.247 87.858,65.852 88.831,63.866 89.251 C 61.846 89.679,61.173 90.010,60.539 90.884 C 58.971 93.048,60.147 95.784,62.897 96.372 C 63.379 96.475,63.643 96.433,66.576 95.784 C 67.471 95.587,69.178 95.210,70.370 94.947 C 71.563 94.684,73.270 94.305,74.164 94.105 C 75.059 93.905,76.278 93.634,76.874 93.502 C 77.471 93.370,78.934 93.045,80.126 92.779 C 82.521 92.244,84.759 91.780,84.943 91.780 C 85.009 91.780,85.400 92.394,85.812 93.146 C 86.224 93.897,87.126 95.152,87.816 95.935 C 88.505 96.717,89.070 97.405,89.070 97.463 C 89.070 97.521,87.637 99.457,85.886 101.765 C 84.134 104.073,81.656 107.344,80.377 109.033 C 79.099 110.723,76.973 113.528,75.652 115.266 C 74.331 117.005,71.590 120.623,69.560 123.306 C 67.530 125.989,64.768 129.632,63.422 131.400 C 59.988 135.915,59.890 136.081,59.899 137.398 C 59.918 140.190,63.201 141.820,65.332 140.095 C 66.089 139.482,65.949 139.663,77.237 124.752 C 78.516 123.062,80.304 120.705,81.210 119.512 C 82.117 118.320,83.784 116.125,84.915 114.634 C 86.047 113.144,87.347 111.436,87.805 110.840 C 88.710 109.661,91.791 105.611,94.023 102.665 C 94.814 101.622,95.557 100.813,95.726 100.814 C 95.891 100.815,96.513 100.898,97.109 100.999 C 100.823 101.628,105.165 100.645,108.089 98.514 L 108.951 97.886 109.805 98.578 C 110.275 98.959,112.596 100.879,114.963 102.844 C 117.330 104.810,119.509 106.543,119.805 106.696 C 122.988 108.342,126.300 104.747,124.347 101.766 C 124.122 101.423,121.449 99.113,118.116 96.382 C 112.981 92.174,113.272 92.486,113.707 91.645 C 116.720 85.817,113.978 76.659,108.066 72.806 L 107.645 72.532 108.837 69.012 C 115.575 49.100,115.233 50.311,114.521 48.917 C 113.732 47.371,112.028 46.646,110.365 47.149 M179.223 88.884 L 179.223 130.081 181.663 130.081 L 184.102 130.081 184.056 88.934 L 184.011 47.787 181.617 47.736 L 179.223 47.686 179.223 88.884 M222.437 53.523 C 230.441 57.478,227.748 69.753,218.837 69.933 L 217.073 69.969 217.026 61.342 L 216.979 52.716 219.023 52.781 C 220.959 52.842,221.140 52.882,222.437 53.523 M259.585 55.872 C 259.779 56.393,260.240 57.674,260.609 58.717 C 260.978 59.761,261.598 61.468,261.986 62.512 C 262.374 63.556,262.692 64.511,262.692 64.635 C 262.692 64.807,261.859 64.860,259.169 64.860 C 257.231 64.860,255.646 64.793,255.646 64.710 C 255.646 64.628,256.101 63.266,256.657 61.684 C 257.213 60.102,257.965 57.936,258.328 56.870 C 259.091 54.631,259.117 54.610,259.585 55.872 M100.871 77.320 C 106.705 78.275,109.709 84.886,106.668 90.075 C 103.431 95.599,95.154 95.514,91.999 89.924 C 88.437 83.611,93.693 76.144,100.871 77.320 M45.077 84.205 C 37.349 84.839,32.468 93.885,36.105 100.831 C 39.675 107.648,48.668 109.310,54.163 104.169 C 62.414 96.451,56.416 83.274,45.077 84.205 M48.372 91.549 C 50.465 92.514,51.475 95.276,50.523 97.429 C 48.926 101.041,44.049 101.066,42.346 97.471 C 40.574 93.728,44.573 89.797,48.372 91.549 M210.564 99.228 C 210.515 99.355,210.497 106.328,210.522 114.724 L 210.569 129.991 219.512 129.991 L 228.455 129.991 228.455 126.920 L 228.455 123.848 222.945 123.758 L 217.435 123.668 217.344 111.382 L 217.254 99.097 213.953 99.047 C 211.410 99.009,210.631 99.051,210.564 99.228 M251.566 99.684 C 251.140 100.675,249.343 105.078,245.795 113.821 C 244.968 115.858,243.183 120.248,241.829 123.577 C 240.474 126.906,239.350 129.711,239.331 129.810 C 239.280 130.068,246.433 130.152,246.690 129.896 C 246.796 129.790,247.341 128.426,247.901 126.866 L 248.918 124.029 254.664 123.981 C 257.825 123.955,260.476 123.999,260.557 124.080 C 260.638 124.161,261.062 125.239,261.500 126.477 C 261.938 127.714,262.427 129.031,262.587 129.404 L 262.877 130.081 266.458 130.081 C 268.428 130.081,270.087 130.033,270.146 129.975 C 270.283 129.837,270.143 129.464,267.847 123.848 C 266.791 121.265,264.921 116.671,263.692 113.640 C 262.464 110.610,260.960 106.911,260.351 105.420 C 259.742 103.930,258.951 101.978,258.592 101.084 C 257.687 98.829,258.017 99.006,254.723 99.006 L 251.857 99.006 251.566 99.684 M282.287 99.232 C 282.240 99.356,282.222 106.328,282.248 114.724 L 282.294 129.991 289.341 130.041 C 298.319 130.105,299.469 129.873,301.865 127.515 C 306.074 123.372,304.281 115.061,298.886 113.707 C 298.332 113.568,298.298 113.632,299.599 112.332 C 303.834 108.097,301.550 100.919,295.473 99.365 C 293.737 98.921,282.449 98.807,282.287 99.232 M139.837 100.388 C 122.934 102.920,115.134 121.310,125.355 134.535 C 136.879 149.446,160.964 142.666,163.159 123.892 C 164.697 110.733,152.544 98.485,139.837 100.388 M293.371 105.194 C 296.496 107.264,294.902 111.478,290.937 111.625 L 289.250 111.688 289.250 108.130 L 289.250 104.572 290.935 104.635 C 292.413 104.690,292.712 104.759,293.371 105.194 M146.494 107.829 C 158.793 112.027,160.020 128.576,148.458 134.318 C 138.537 139.244,127.318 131.913,127.782 120.808 C 128.176 111.372,137.640 104.808,146.494 107.829 M255.358 109.259 C 255.635 110.029,256.133 111.432,256.465 112.376 C 256.798 113.320,257.395 115.007,257.792 116.125 L 258.514 118.157 254.753 118.157 L 250.993 118.157 251.715 116.125 C 252.112 115.007,252.936 112.691,253.545 110.978 C 254.154 109.265,254.698 107.862,254.754 107.861 C 254.811 107.860,255.082 108.489,255.358 109.259 M295.057 117.938 C 297.122 118.955,297.663 121.579,296.152 123.252 C 295.095 124.421,294.318 124.661,291.584 124.661 L 289.250 124.661 289.250 121.034 L 289.250 117.407 291.734 117.466 C 293.884 117.517,294.331 117.580,295.057 117.938 M49.593 140.111 C 38.682 143.213,38.291 158.224,49.022 162.115 C 54.100 163.957,60.540 161.364,62.847 156.549 C 63.180 155.854,63.519 155.153,63.600 154.993 C 64.279 153.655,64.276 149.407,63.596 147.528 C 61.457 141.622,55.458 138.445,49.593 140.111 M54.329 147.021 C 58.841 149.041,57.567 155.646,52.665 155.646 C 47.888 155.646,46.507 149.087,50.858 147.068 C 51.803 146.630,53.408 146.608,54.329 147.021 " stroke="none" fill="#fbfbfb" fill-rule="evenodd"></path></g></svg>