<svg id="svg" version="1.1" xmlns="http://www.w3.org/2000/svg" xmlns:xlink="http://www.w3.org/1999/xlink" width="400" height="477.02407002188187" viewBox="0, 0, 400,477.02407002188187"><g id="svgg"><path id="path0" d="M217.287 10.511 C 211.749 13.740,212.061 18.501,218.391 27.372 C 219.586 29.046,220.956 31.141,221.435 32.027 C 221.915 32.913,222.511 33.765,222.760 33.919 C 223.010 34.073,224.539 36.181,226.158 38.604 C 227.778 41.027,229.497 43.540,229.978 44.188 C 230.460 44.836,231.591 46.433,232.493 47.738 C 236.571 53.636,237.254 54.615,238.732 56.674 C 239.597 57.877,241.381 60.438,242.697 62.363 C 244.013 64.289,245.461 66.357,245.915 66.958 C 246.735 68.045,256.523 81.912,257.755 83.732 C 258.109 84.255,261.367 88.917,264.994 94.092 C 276.362 110.307,282.740 120.423,283.843 123.988 C 284.006 124.515,284.610 125.882,285.186 127.027 C 288.815 134.247,289.283 140.784,286.902 150.985 C 284.695 160.438,284.385 164.186,284.544 179.441 L 284.683 192.779 286.383 196.654 C 289.900 204.672,287.702 208.138,281.201 204.824 C 280.267 204.348,278.797 203.734,277.935 203.461 C 277.073 203.187,275.464 202.395,274.360 201.700 C 273.256 201.006,272.173 200.437,271.953 200.437 C 271.456 200.435,267.209 197.631,263.514 194.866 C 261.981 193.718,260.307 192.491,259.795 192.139 C 255.102 188.917,239.700 173.737,230.693 163.457 C 228.162 160.569,225.587 157.709,224.971 157.102 C 224.355 156.495,222.485 154.490,220.815 152.646 C 217.014 148.449,215.095 147.448,212.880 148.504 C 212.038 148.906,211.060 149.234,210.707 149.234 C 209.515 149.234,209.812 155.915,211.029 156.461 C 211.559 156.698,212.396 157.612,212.889 158.490 C 213.726 159.982,214.960 161.816,218.479 166.800 C 219.268 167.916,220.306 169.393,220.788 170.082 C 221.269 170.771,222.845 172.839,224.289 174.678 C 225.733 176.517,227.604 178.940,228.446 180.064 C 229.289 181.187,230.372 182.568,230.853 183.132 C 231.335 183.696,232.812 185.490,234.136 187.119 C 239.970 194.297,241.887 196.537,245.660 200.581 C 253.968 209.488,265.728 217.349,275.492 220.523 C 276.937 220.993,278.950 221.685,279.967 222.061 C 280.984 222.437,284.233 223.058,287.188 223.440 C 290.143 223.823,293.840 224.403,295.405 224.730 C 296.969 225.057,301.105 225.633,304.595 226.009 C 311.395 226.742,315.098 227.446,315.098 228.006 C 315.098 228.702,316.557 228.888,317.241 228.279 C 318.150 227.468,320.541 226.861,325.164 226.266 C 329.159 225.753,337.174 223.426,341.794 221.438 C 343.359 220.765,345.131 220.071,345.733 219.896 C 346.335 219.722,347.319 219.245,347.921 218.837 C 348.523 218.430,349.705 217.823,350.547 217.489 C 353.984 216.128,361.485 211.318,365.778 207.722 C 369.775 204.376,375.828 198.111,377.626 195.461 C 382.563 188.183,386.761 179.185,388.473 172.210 C 388.827 170.766,389.514 168.558,389.998 167.303 C 390.483 166.049,391.158 163.686,391.498 162.052 C 391.838 160.418,392.497 158.191,392.963 157.103 C 394.772 152.880,394.585 137.376,392.643 130.626 C 392.160 128.946,391.466 126.389,391.102 124.945 C 388.866 116.084,382.907 102.978,380.307 101.204 C 375.266 97.763,370.393 103.002,372.791 109.284 C 373.231 110.436,374.405 114.825,375.399 119.037 C 377.031 125.955,377.592 128.998,379.068 138.950 C 379.807 143.932,378.057 153.785,375.546 158.782 C 375.100 159.668,374.482 161.182,374.172 162.144 C 373.863 163.107,373.358 164.289,373.051 164.770 C 372.744 165.252,372.150 166.532,371.732 167.615 C 371.313 168.698,370.606 170.113,370.159 170.759 C 369.712 171.405,369.049 172.778,368.685 173.810 C 367.330 177.651,365.309 178.835,361.416 178.069 C 358.770 177.549,357.112 176.235,357.112 174.660 C 357.112 174.267,356.570 173.161,355.908 172.202 C 354.798 170.595,354.705 170.130,354.705 166.224 L 354.705 161.988 352.589 159.960 C 351.383 158.803,349.125 157.315,347.338 156.499 C 344.019 154.983,342.489 153.544,339.387 149.022 C 335.646 143.566,333.058 141.393,320.788 133.402 C 306.216 123.912,306.018 123.698,289.630 99.781 C 286.822 95.683,282.600 89.982,280.201 87.049 C 278.940 85.507,275.592 81.414,272.762 77.954 C 265.925 69.598,262.379 65.054,260.452 62.180 C 259.578 60.876,258.421 59.202,257.882 58.460 C 256.628 56.735,254.698 53.983,251.517 49.389 C 250.125 47.378,247.526 43.665,245.742 41.138 C 243.957 38.611,241.208 34.672,239.632 32.385 C 238.056 30.098,236.066 27.243,235.209 26.039 C 234.353 24.836,233.331 23.359,232.938 22.757 C 232.545 22.155,231.830 21.218,231.348 20.674 C 230.867 20.130,230.066 19.020,229.569 18.208 C 224.010 9.131,221.910 7.815,217.287 10.511 M97.773 77.440 C 92.396 78.277,91.531 80.159,93.397 86.961 C 93.978 89.078,95.277 94.453,96.283 98.906 C 97.290 103.359,98.664 109.267,99.336 112.035 C 100.009 114.803,100.691 117.856,100.851 118.818 C 101.011 119.781,101.603 122.341,102.167 124.508 C 104.374 132.991,109.847 156.470,109.847 157.458 C 109.847 160.135,107.248 160.447,99.794 158.662 C 97.260 158.056,91.346 156.751,86.652 155.762 C 81.958 154.774,75.755 153.413,72.867 152.740 C 69.978 152.066,66.729 151.380,65.646 151.217 C 64.562 151.053,62.279 150.538,60.571 150.073 C 58.863 149.607,55.515 148.855,53.131 148.400 C 50.747 147.946,45.941 146.946,42.451 146.179 C 31.008 143.662,30.068 143.905,28.863 149.688 C 28.488 151.484,27.946 153.384,27.658 153.910 C 25.342 158.132,28.074 160.735,36.543 162.374 C 39.190 162.887,42.538 163.605,43.982 163.971 C 46.926 164.715,57.901 167.101,65.864 168.727 C 68.753 169.317,72.298 170.089,73.742 170.443 C 75.186 170.797,77.845 171.377,79.650 171.732 C 84.292 172.646,96.598 175.334,101.054 176.408 C 106.695 177.768,107.705 179.567,104.787 183.063 C 103.842 184.197,87.331 207.652,83.316 213.567 C 82.744 214.409,80.894 217.068,79.205 219.475 C 77.517 221.882,75.400 224.918,74.501 226.223 C 73.602 227.527,72.473 229.119,71.991 229.759 C 71.510 230.400,70.383 231.991,69.487 233.296 C 68.592 234.600,67.070 236.751,66.105 238.074 C 62.325 243.264,61.820 246.372,64.412 248.494 C 64.909 248.901,65.636 249.557,66.027 249.952 C 71.452 255.418,74.451 255.441,78.070 250.045 C 78.994 248.668,82.390 243.698,87.746 235.886 C 89.314 233.600,91.872 229.858,93.431 227.571 C 94.991 225.284,97.013 222.330,97.926 221.007 C 98.839 219.683,101.346 216.039,103.497 212.910 C 105.648 209.781,108.162 206.138,109.083 204.814 C 110.004 203.490,111.268 201.619,111.892 200.656 C 117.505 191.987,117.736 192.206,122.016 210.284 C 123.811 217.864,129.898 242.919,130.683 245.952 C 131.025 247.276,131.779 250.525,132.358 253.173 C 134.861 264.614,135.504 265.629,140.263 265.637 C 149.714 265.651,152.231 263.498,150.606 256.789 C 149.246 251.174,146.857 241.098,145.287 234.354 C 144.502 230.985,143.591 227.144,143.263 225.821 C 142.934 224.497,142.360 222.133,141.987 220.569 C 141.614 219.004,140.905 216.050,140.411 214.004 C 133.349 184.773,133.586 186.242,135.766 185.260 C 136.788 184.799,144.127 186.107,152.039 188.161 C 153.943 188.655,155.876 189.059,156.335 189.059 C 156.794 189.059,159.667 189.640,162.720 190.350 C 165.773 191.061,170.142 192.048,172.429 192.544 C 180.730 194.346,191.135 196.585,195.842 197.583 C 198.490 198.144,202.214 199.016,204.118 199.520 C 212.161 201.652,214.118 200.557,215.539 193.131 C 217.004 185.472,216.227 184.267,208.972 182.951 C 206.496 182.502,201.973 181.524,192.695 179.432 C 190.483 178.933,186.446 178.051,183.724 177.470 C 181.002 176.890,174.639 175.506,169.584 174.394 C 164.530 173.283,158.425 171.990,156.018 171.521 C 153.611 171.053,150.656 170.389,149.453 170.047 C 148.249 169.705,145.503 169.103,143.351 168.709 C 139.082 167.928,138.069 167.522,136.904 166.128 C 135.500 164.449,135.257 164.912,144.953 150.766 C 149.502 144.128,150.907 142.072,155.119 135.886 C 157.249 132.757,159.301 129.839,159.678 129.401 C 160.056 128.964,160.765 127.953,161.254 127.155 C 162.070 125.824,166.211 119.731,169.695 114.734 C 174.664 107.606,176.456 104.962,177.573 103.108 C 177.993 102.411,178.909 101.169,179.607 100.349 C 182.519 96.929,181.489 93.890,176.371 90.810 C 170.154 87.067,169.216 87.316,164.728 93.903 C 163.307 95.989,160.909 99.494,159.399 101.692 C 157.889 103.891,155.988 106.674,155.174 107.877 C 154.360 109.081,152.338 112.035,150.681 114.442 C 149.023 116.849,145.907 121.379,143.757 124.508 C 141.607 127.637,139.154 131.206,138.305 132.438 C 137.456 133.671,135.585 136.428,134.147 138.565 C 126.785 149.508,125.264 149.942,123.689 141.555 C 123.325 139.618,122.641 136.467,122.169 134.553 C 121.696 132.638,120.689 128.414,119.930 125.164 C 119.171 121.915,117.664 115.613,116.580 111.160 C 115.496 106.707,114.049 100.700,113.364 97.812 C 112.678 94.923,111.786 91.182,111.381 89.497 C 110.976 87.812,110.267 84.764,109.805 82.723 C 108.546 77.157,106.200 76.127,97.773 77.440 M123.414 163.241 C 128.848 164.783,130.724 170.501,127.743 176.436 C 125.421 181.057,118.649 180.992,115.374 176.316 C 113.139 173.125,116.319 164.370,120.115 163.266 C 121.895 162.749,121.687 162.750,123.414 163.241 M232.993 251.253 C 220.950 252.246,212.292 257.369,209.251 265.300 C 207.928 268.751,207.440 270.285,205.239 277.899 C 204.717 279.705,203.896 282.166,203.414 283.370 C 202.931 284.573,202.255 286.832,201.911 288.389 C 201.568 289.946,200.817 292.703,200.243 294.516 C 196.908 305.057,195.761 315.081,197.590 317.720 C 200.329 321.672,213.256 329.313,221.985 332.139 C 222.884 332.430,223.724 332.835,223.850 333.039 C 223.976 333.244,225.407 333.851,227.029 334.388 C 228.651 334.925,230.372 335.618,230.853 335.928 C 231.335 336.237,233.206 336.983,235.011 337.585 C 236.816 338.186,240.263 339.406,242.670 340.294 C 245.077 341.183,248.358 342.362,249.961 342.915 C 251.564 343.468,253.444 344.213,254.138 344.572 C 254.832 344.931,256.573 345.529,258.006 345.902 C 259.440 346.274,261.440 346.979,262.452 347.469 C 263.463 347.958,264.517 348.359,264.794 348.359 C 265.071 348.359,267.028 348.939,269.144 349.647 C 271.259 350.356,274.242 351.250,275.773 351.635 C 277.303 352.019,279.540 352.713,280.744 353.176 C 281.947 353.639,284.114 354.303,285.558 354.651 C 287.002 354.999,289.267 355.674,290.591 356.151 C 291.915 356.628,294.278 357.322,295.842 357.692 C 297.407 358.062,299.770 358.662,301.094 359.025 C 321.161 364.521,338.032 365.508,343.114 361.483 C 345.780 359.371,349.745 352.692,351.274 347.736 C 351.640 346.551,352.200 345.173,352.520 344.673 C 352.840 344.173,353.320 342.877,353.587 341.794 C 353.854 340.711,354.544 338.545,355.122 336.980 C 355.699 335.416,356.675 332.068,357.290 329.540 C 357.905 327.013,358.711 323.764,359.081 322.319 C 359.451 320.875,359.959 318.571,360.210 317.198 C 360.547 315.356,360.888 314.632,361.515 314.434 C 362.822 314.019,362.824 301.299,361.516 300.884 C 360.993 300.718,360.400 299.804,359.964 298.492 C 358.843 295.117,352.856 287.685,347.702 283.272 C 333.538 271.142,304.758 259.133,278.556 254.418 C 276.630 254.072,272.495 253.299,269.365 252.700 C 260.494 251.004,243.976 250.347,232.993 251.253 M246.718 261.962 C 247.861 262.630,249.349 263.764,250.024 264.482 C 254.186 268.913,256.472 269.301,256.388 265.560 C 256.306 261.893,256.960 261.560,263.051 262.171 C 272.192 263.086,273.523 264.066,273.523 269.876 C 273.523 274.641,274.134 275.013,276.933 271.954 C 281.417 267.051,282.016 266.493,283.089 266.223 C 284.643 265.833,288.113 266.630,292.114 268.296 C 296.599 270.163,297.215 271.125,297.062 276.024 C 296.890 281.565,298.651 281.424,302.281 275.605 C 304.334 272.314,309.613 273.365,321.384 279.408 C 325.334 281.435,325.919 283.410,323.356 286.055 C 320.648 288.849,322.221 289.419,328.510 287.925 C 334.313 286.547,336.339 287.421,343.640 294.454 C 349.909 300.492,349.627 301.743,341.924 302.060 C 332.080 302.466,332.106 304.084,342.013 307.443 C 344.661 308.341,347.073 309.273,347.374 309.515 C 349.129 310.924,346.846 313.508,343.231 314.206 C 341.839 314.475,339.420 314.979,337.856 315.326 C 324.601 318.267,323.409 317.768,312.731 304.814 C 310.731 302.388,310.035 303.576,310.221 309.095 C 310.431 315.301,310.222 315.467,303.222 314.634 C 295.730 313.743,293.047 311.078,291.047 302.538 C 289.995 298.045,288.525 298.314,286.863 303.305 C 285.044 308.769,284.369 309.149,278.775 307.871 C 272.089 306.343,270.897 305.162,270.897 300.063 C 270.897 294.281,269.732 294.039,266.397 299.128 C 263.136 304.104,261.966 304.034,251.860 298.266 C 243.955 293.754,243.291 292.568,246.589 288.840 C 250.621 284.282,249.574 282.652,244.158 285.057 C 236.827 288.312,234.231 287.188,227.272 277.742 C 224.284 273.686,224.677 272.780,229.777 271.963 C 235.279 271.082,235.365 269.799,230.030 268.207 C 226.346 267.108,225.293 266.323,225.472 264.807 C 225.671 263.114,227.278 262.585,237.637 260.800 C 241.104 260.202,244.434 260.628,246.718 261.962 M82.968 275.778 C 79.954 277.775,77.926 284.744,76.557 297.812 C 75.636 306.598,73.877 313.578,71.530 317.758 C 70.391 319.785,69.020 322.232,68.482 323.195 C 66.058 327.536,64.382 330.390,63.569 331.558 C 63.085 332.254,61.178 335.088,59.330 337.856 C 56.317 342.369,54.682 344.717,51.528 349.051 C 47.802 354.174,44.157 359.695,42.452 362.801 C 41.726 364.125,40.939 365.503,40.705 365.864 C 39.894 367.114,37.104 374.404,36.881 375.858 C 36.689 377.110,36.898 377.564,38.350 379.052 C 40.174 380.918,40.422 382.634,39.599 387.666 C 38.584 393.871,42.436 399.180,52.225 405.070 C 68.149 414.649,77.917 422.618,82.501 429.769 C 86.170 435.494,93.063 449.561,95.470 456.236 C 98.909 465.775,103.144 465.023,105.873 454.388 C 108.958 442.364,110.512 438.291,112.520 436.962 C 114.171 435.871,116.133 432.757,116.839 430.109 C 117.758 426.668,118.425 426.367,122.112 427.734 C 126.072 429.202,127.140 429.179,130.215 427.562 C 133.058 426.066,133.614 426.124,135.583 428.120 C 137.251 429.811,142.401 436.723,143.327 438.513 C 149.008 449.500,160.940 446.263,156.033 435.066 C 151.882 425.593,151.856 411.888,155.973 403.939 C 156.535 402.856,157.139 401.477,157.316 400.875 C 157.704 399.557,160.031 394.503,162.455 389.716 C 164.169 386.331,165.497 383.976,168.690 378.665 C 169.522 377.281,170.813 375.066,171.560 373.742 C 172.307 372.418,173.688 370.055,174.630 368.490 C 177.085 364.408,177.673 363.032,178.150 360.244 C 178.383 358.882,178.779 356.610,179.031 355.195 L 179.489 352.623 177.204 350.511 L 174.919 348.399 175.198 343.526 L 175.476 338.652 172.749 336.076 C 171.249 334.660,169.840 333.496,169.619 333.490 C 169.397 333.484,168.905 333.204,168.525 332.869 C 168.145 332.533,162.516 329.788,156.018 326.769 C 130.508 314.921,114.771 304.367,106.653 293.663 C 105.645 292.335,103.588 289.672,102.082 287.746 C 100.575 285.821,98.802 283.496,98.140 282.581 C 92.794 275.189,87.465 272.800,82.968 275.778 M218.352 288.978 C 226.540 296.801,246.604 309.252,255.142 311.810 C 255.744 311.990,257.276 312.607,258.547 313.180 C 259.818 313.754,261.053 314.223,261.293 314.223 C 261.532 314.223,263.840 314.900,266.422 315.727 C 276.347 318.906,290.137 322.747,293.217 323.189 C 294.300 323.345,296.860 323.938,298.906 324.508 C 309.184 327.370,333.949 327.700,344.230 325.111 C 348.436 324.052,348.492 325.813,344.640 338.074 C 340.942 349.844,337.573 354.048,331.837 354.049 C 325.977 354.050,305.897 350.232,298.031 347.620 C 296.947 347.261,294.880 346.666,293.435 346.299 C 291.991 345.932,289.825 345.271,288.621 344.830 C 287.418 344.389,285.153 343.716,283.589 343.335 C 282.024 342.955,280.055 342.347,279.212 341.986 C 278.370 341.624,275.810 340.760,273.523 340.064 C 268.613 338.572,264.192 337.149,262.363 336.474 C 260.983 335.964,254.704 333.672,249.891 331.922 C 244.536 329.975,237.856 327.448,234.573 326.127 C 227.457 323.263,225.534 322.465,223.851 321.678 C 222.888 321.228,220.033 319.949,217.505 318.835 C 210.998 315.966,210.129 315.494,208.405 313.891 L 206.872 312.465 207.145 308.640 C 207.295 306.535,207.924 303.140,208.542 301.094 C 209.161 299.048,210.053 295.738,210.525 293.738 C 211.634 289.036,213.290 285.777,214.571 285.777 C 214.807 285.777,216.509 287.217,218.352 288.978 M94.766 290.299 C 95.593 290.861,96.715 291.931,97.259 292.677 C 100.071 296.529,102.213 299.091,105.846 302.950 C 110.188 307.562,110.746 308.948,108.972 310.722 C 106.868 312.826,105.560 311.805,100.571 304.158 C 94.816 295.338,94.498 294.791,94.018 292.885 C 93.759 291.856,93.374 290.907,93.163 290.776 C 92.745 290.518,92.628 289.278,93.021 289.278 C 93.154 289.278,93.939 289.738,94.766 290.299 M92.639 304.486 C 96.298 310.170,101.352 317.652,103.028 319.865 C 104.010 321.162,105.204 322.738,105.680 323.366 C 106.156 323.994,107.584 325.741,108.853 327.249 C 111.576 330.484,111.705 331.433,109.884 334.824 C 107.011 340.170,105.206 348.028,105.040 355.908 C 105.019 356.900,103.548 355.755,99.384 351.506 C 94.896 346.926,93.645 345.923,85.857 340.659 C 80.586 337.097,80.460 336.691,82.734 330.635 C 85.696 322.749,87.527 314.185,87.527 308.224 C 87.527 301.582,89.732 299.969,92.639 304.486 M124.508 317.792 C 129.197 321.092,147.152 330.853,148.532 330.853 C 148.667 330.853,151.393 332.105,154.590 333.635 C 157.787 335.165,160.845 336.557,161.384 336.728 C 163.997 337.558,163.292 340.512,160.286 341.330 C 152.257 343.513,150.466 343.588,148.051 341.838 C 142.998 338.178,131.218 332.169,123.420 329.274 C 115.472 326.324,111.026 320.953,113.177 316.899 C 115.541 312.441,117.075 312.562,124.508 317.792 M76.149 327.921 C 76.149 329.530,75.496 330.416,74.311 330.416 C 73.283 330.416,73.316 329.760,74.434 327.951 C 75.585 326.088,76.149 326.078,76.149 327.921 M123.340 336.380 C 127.480 337.799,138.307 343.343,140.063 344.943 C 142.738 347.380,141.937 348.197,132.676 352.483 C 129.234 354.076,124.150 356.568,121.378 358.022 C 115.831 360.929,114.619 361.105,113.206 359.203 C 110.526 355.598,113.221 339.979,117.113 336.562 C 118.956 334.943,119.133 334.938,123.340 336.380 M69.343 340.410 C 69.633 341.326,68.100 345.093,67.227 345.610 C 66.909 345.798,66.414 346.398,66.128 346.943 C 65.570 348.007,60.574 353.820,57.296 357.221 C 51.983 362.733,53.995 357.015,60.417 348.354 C 62.875 345.038,63.462 344.208,65.437 341.247 C 66.685 339.377,68.866 338.909,69.343 340.410 M167.592 344.530 C 169.193 348.518,168.964 353.620,167.160 354.117 C 164.027 354.980,157.080 357.246,155.361 357.966 C 154.278 358.420,151.028 359.718,148.140 360.851 C 130.800 367.651,113.326 376.177,110.246 379.339 C 106.779 382.898,107.009 382.820,104.911 381.154 C 103.895 380.347,102.803 379.329,102.484 378.892 C 100.242 375.815,93.355 374.304,88.825 375.894 C 87.510 376.356,84.133 377.033,81.322 377.399 C 78.511 377.764,75.582 378.389,74.814 378.786 C 74.046 379.183,71.375 379.776,68.879 380.104 C 66.383 380.431,63.462 381.088,62.389 381.563 C 61.315 382.038,59.295 382.564,57.899 382.733 C 56.503 382.903,54.376 383.410,53.173 383.862 C 50.083 385.021,49.396 384.914,48.149 383.084 C 45.896 379.776,47.031 376.823,50.911 375.899 C 52.155 375.603,54.408 374.898,55.918 374.333 C 57.428 373.767,59.538 373.304,60.606 373.304 C 61.675 373.304,63.591 372.928,64.863 372.469 C 66.136 372.009,69.934 371.319,73.304 370.935 C 76.674 370.551,80.711 369.943,82.276 369.585 C 83.840 369.226,88.630 368.533,92.919 368.043 C 99.359 367.309,101.094 366.957,102.877 366.024 C 105.517 364.644,106.802 364.865,108.069 366.914 C 110.126 370.242,113.805 370.312,118.843 367.117 C 121.261 365.584,125.930 363.201,134.136 359.313 C 139.446 356.797,145.221 353.920,159.737 346.557 C 166.210 343.274,167.005 343.069,167.592 344.530 M80.219 344.697 C 85.400 347.341,92.705 352.274,95.545 355.047 C 101.654 361.011,100.198 363.049,88.403 365.045 C 85.635 365.513,81.893 366.367,80.088 366.942 C 78.282 367.517,74.861 368.306,72.484 368.695 C 70.108 369.084,67.449 369.763,66.576 370.203 C 65.228 370.883,60.363 371.991,58.727 371.991 C 57.593 371.991,56.859 370.031,57.405 368.463 C 57.830 367.245,65.338 358.033,67.192 356.455 C 67.876 355.872,73.092 348.962,74.239 347.118 C 75.987 344.308,77.921 343.525,80.219 344.697 M171.007 357.475 C 172.231 358.995,171.784 360.128,166.617 368.609 C 163.134 374.327,162.661 374.652,156.687 375.449 C 151.181 376.183,149.728 374.677,151.213 369.772 C 152.728 364.769,156.551 360.778,160.613 359.960 C 161.455 359.790,163.326 359.003,164.770 358.210 C 168.520 356.152,169.817 355.999,171.007 357.475 M53.517 360.620 C 53.242 361.669,52.676 362.101,52.324 361.530 C 52.185 361.305,52.382 360.810,52.762 360.429 C 53.667 359.524,53.795 359.556,53.517 360.620 M143.020 369.015 C 143.731 369.727,143.685 373.879,142.946 375.616 C 141.297 379.491,126.285 399.324,124.481 400.010 C 121.879 400.999,118.439 397.547,117.058 392.560 C 116.692 391.236,116.101 389.506,115.745 388.716 C 114.148 385.165,115.471 382.804,120.688 379.896 C 122.067 379.128,124.376 377.798,125.821 376.942 C 131.667 373.474,132.921 372.776,135.164 371.736 C 136.451 371.139,138.220 370.165,139.094 369.571 C 140.830 368.391,142.202 368.197,143.020 369.015 M97.034 379.197 C 99.626 380.577,102.098 383.577,101.702 384.863 C 101.175 386.574,100.238 388.105,99.224 388.911 C 97.987 389.894,95.737 393.135,93.668 396.912 C 91.664 400.573,90.271 401.400,85.657 401.667 C 76.469 402.199,68.204 399.125,62.465 393.041 C 56.677 386.906,58.075 384.071,67.676 382.479 C 70.531 382.005,73.260 381.435,73.742 381.211 C 75.459 380.414,77.754 379.917,82.932 379.222 C 85.821 378.834,88.873 378.339,89.716 378.121 C 91.946 377.546,94.690 377.949,97.034 379.197 M156.424 383.182 C 157.438 384.197,157.097 385.991,155.390 388.621 C 154.742 389.620,151.823 396.056,151.140 397.993 C 150.807 398.935,150.360 399.920,150.146 400.181 C 148.150 402.619,146.416 410.852,146.186 418.991 C 145.934 427.879,145.409 429.678,143.741 427.352 C 137.541 418.704,131.572 415.322,128.665 418.811 C 125.856 422.182,122.688 420.548,123.117 415.949 C 123.497 411.878,124.344 410.329,128.584 405.941 C 131.965 402.442,134.059 399.933,137.199 395.621 C 140.978 390.431,144.574 385.951,145.885 384.800 C 147.532 383.354,148.048 383.227,155.002 382.565 C 155.406 382.526,156.046 382.804,156.424 383.182 M51.762 390.044 C 55.741 395.005,57.189 399.336,54.370 397.848 C 53.952 397.628,52.973 397.211,52.193 396.922 C 48.215 395.448,46.404 390.379,49.190 388.519 C 49.993 387.983,50.213 388.113,51.762 390.044 M108.038 390.263 C 108.305 390.925,108.819 392.898,109.181 394.649 C 109.836 397.819,110.809 400.124,112.726 403.054 C 115.019 406.558,115.015 408.393,112.694 418.818 C 111.032 426.282,110.047 427.297,107.661 424.004 C 106.938 423.005,106.346 422.013,106.346 421.799 C 106.346 420.980,102.305 410.638,101.334 408.972 C 97.080 401.673,97.026 401.330,99.411 396.592 C 102.733 389.994,106.743 387.052,108.038 390.263 M74.619 407.441 C 76.566 408.181,84.907 408.691,88.840 408.311 C 95.346 407.682,95.416 407.766,100.181 421.882 C 101.441 425.613,102.968 429.726,103.574 431.022 C 104.805 433.653,104.799 433.769,103.086 440.044 C 101.427 446.119,99.327 447.519,97.507 443.764 C 88.370 424.920,85.004 420.175,75.307 412.473 C 71.145 409.166,70.705 405.953,74.619 407.441 " stroke="none" fill="#000000" fill-rule="evenodd"></path></g></svg>